<svg width="109" height="105" viewBox="0 0 109 105" fill="none" xmlns="http://www.w3.org/2000/svg">
<g clip-path="url(#clip0_237_280)">
<path d="M19.3021 8.46316e-06L89.6979 8.46316e-06C92.2334 -0.00235256 94.7444 0.489309 97.0873 1.44686C99.4303 2.4044 101.559 3.80904 103.352 5.58037C105.145 7.3517 106.566 9.45495 107.536 11.7698C108.505 14.0846 109.002 16.5655 109 19.0705V85.9295C109.002 88.4345 108.505 90.9154 107.536 93.2302C106.566 95.5451 105.145 97.6483 103.352 99.4196C101.559 101.191 99.4303 102.596 97.0873 103.553C94.7444 104.511 92.2334 105.002 89.6979 105H19.3021C16.7666 105.002 14.2556 104.511 11.9127 103.553C9.56976 102.596 7.44097 101.191 5.64813 99.4196C3.85529 97.6483 2.4336 95.5451 1.46443 93.2302C0.495251 90.9154 -0.00238112 88.4345 8.56593e-06 85.9295L8.56593e-06 19.0705C-0.00238112 16.5655 0.495251 14.0846 1.46443 11.7698C2.4336 9.45495 3.85529 7.3517 5.64813 5.58037C7.44097 3.80904 9.56976 2.4044 11.9127 1.44686C14.2556 0.489309 16.7666 -0.00235256 19.3021 8.46316e-06Z" fill="#000B1D"/>
<path d="M44.0544 84.525C50.3251 84.525 55.4085 79.6281 55.4085 73.5875V62.65H44.0544C37.7836 62.65 32.7002 67.5469 32.7002 73.5875C32.7002 79.6281 37.7836 84.525 44.0544 84.525Z" fill="#0ACF83"/>
<path d="M32.7002 51.7125C32.7002 45.6719 37.7836 40.775 44.0544 40.775H55.4085V62.65H44.0544C37.7836 62.65 32.7002 57.7531 32.7002 51.7125Z" fill="#A259FF"/>
<path d="M32.7002 29.8375C32.7002 23.7969 37.7836 18.9 44.0544 18.9H55.4085V40.775H44.0544C37.7836 40.775 32.7002 35.8781 32.7002 29.8375Z" fill="#F24E1E"/>
<path d="M55.4086 18.9H66.7627C73.0335 18.9 78.1169 23.7969 78.1169 29.8375C78.1169 35.8781 73.0335 40.775 66.7627 40.775H55.4086V18.9Z" fill="#FF7262"/>
<path d="M78.1169 51.7125C78.1169 57.7531 73.0335 62.65 66.7627 62.65C60.492 62.65 55.4086 57.7531 55.4086 51.7125C55.4086 45.6719 60.492 40.775 66.7627 40.775C73.0335 40.775 78.1169 45.6719 78.1169 51.7125Z" fill="#1ABCFE"/>
</g>
<defs>
<clipPath id="clip0_237_280">
<rect width="109" height="105" fill="white"/>
</clipPath>
</defs>
</svg>
