<svg width="109" height="104" viewBox="0 0 109 104" fill="none" xmlns="http://www.w3.org/2000/svg">
<g clip-path="url(#clip0_237_273)">
<path d="M19.3021 8.38256e-06L89.6979 8.38256e-06C92.2334 -0.00233015 94.7444 0.484649 97.0873 1.43308C99.4302 2.3815 101.559 3.77276 103.352 5.52722C105.145 7.28168 106.566 9.3649 107.536 11.6577C108.505 13.9504 109.002 16.4077 109 18.8889V85.1111C109.002 87.5923 108.505 90.0496 107.536 92.3423C106.566 94.6351 105.145 96.7183 103.352 98.4728C101.559 100.227 99.4302 101.618 97.0873 102.567C94.7444 103.515 92.2334 104.002 89.6979 104H19.3021C16.7666 104.002 14.2556 103.515 11.9127 102.567C9.56976 101.618 7.44097 100.227 5.64813 98.4728C3.85529 96.7183 2.4336 94.6351 1.46442 92.3423C0.495251 90.0496 -0.00238112 87.5923 8.56593e-06 85.1111L8.56593e-06 18.8889C-0.00238112 16.4077 0.495251 13.9504 1.46442 11.6577C2.4336 9.3649 3.85529 7.28168 5.64813 5.52722C7.44097 3.77276 9.56976 2.3815 11.9127 1.43308C14.2556 0.484649 16.7666 -0.00233015 19.3021 8.38256e-06Z" fill="#F7DF1E"/>
<path d="M73.4055 81.3758C75.601 84.7963 78.4575 87.3104 83.5096 87.3104C87.7537 87.3104 90.4648 85.2865 90.4648 82.4901C90.4648 79.139 87.6793 77.9521 83.0078 76.0025L80.4472 74.9542C73.056 71.9498 68.1458 68.186 68.1458 60.2291C68.1458 52.8996 73.9989 47.3199 83.1462 47.3199C89.6586 47.3199 94.3404 49.4825 97.7142 55.1447L89.7381 60.0311C87.982 57.0266 86.0875 55.843 83.1462 55.843C80.1462 55.843 78.2447 57.6589 78.2447 60.0311C78.2447 62.9629 80.1479 64.1498 84.5425 65.9657L87.1031 67.0123C95.8058 70.573 100.719 74.2031 100.719 82.3646C100.719 91.1634 93.4753 95.9837 83.7466 95.9837C74.2342 95.9837 68.0887 91.6586 65.0817 85.9898L73.4055 81.3758ZM37.2226 82.2227C38.8317 84.9465 40.2954 87.2493 43.8145 87.2493C47.1797 87.2493 49.3026 85.9931 49.3026 81.1084V47.8779H59.5452V81.2405C59.5452 91.3598 53.327 95.9655 44.2505 95.9655C36.0496 95.9655 31.3003 91.9161 28.885 87.0389L37.2226 82.2227Z" fill="black"/>
</g>
<defs>
<clipPath id="clip0_237_273">
<rect width="109" height="104" fill="white"/>
</clipPath>
</defs>
</svg>
