<svg width="109" height="105" viewBox="0 0 109 105" fill="none" xmlns="http://www.w3.org/2000/svg">
<g clip-path="url(#clip0_237_276)">
<path d="M19.3021 8.46316e-06L89.6979 8.46316e-06C92.2334 -0.00235256 94.7444 0.489309 97.0873 1.44686C99.4302 2.4044 101.559 3.80904 103.352 5.58037C105.145 7.3517 106.566 9.45495 107.536 11.7698C108.505 14.0846 109.002 16.5655 109 19.0705V85.9295C109.002 88.4345 108.505 90.9154 107.536 93.2302C106.566 95.545 105.145 97.6483 103.352 99.4196C101.559 101.191 99.4302 102.596 97.0873 103.553C94.7444 104.511 92.2334 105.002 89.6979 105H19.3021C16.7666 105.002 14.2556 104.511 11.9127 103.553C9.56976 102.596 7.44097 101.191 5.64813 99.4196C3.85529 97.6483 2.4336 95.545 1.46442 93.2302C0.495251 90.9154 -0.00238112 88.4345 8.56593e-06 85.9295L8.56593e-06 19.0705C-0.00238112 16.5655 0.495251 14.0846 1.46442 11.7698C2.4336 9.45495 3.85529 7.3517 5.64813 5.58037C7.44097 3.80904 9.56976 2.4044 11.9127 1.44686C14.2556 0.489309 16.7666 -0.00235256 19.3021 8.46316e-06V8.46316e-06Z" fill="#000B1D"/>
<g clip-path="url(#clip1_237_276)">
<path d="M84.3665 57.2762C81.4781 57.2909 78.9678 57.9673 76.8658 58.9672C76.0946 57.4821 75.3233 56.1587 75.1872 55.1882C75.036 54.056 74.8545 53.3649 75.036 52.0121C75.2175 50.6594 76.0341 48.7331 76.0189 48.5861C76.0038 48.4391 75.8375 47.748 74.174 47.7333C72.5106 47.7186 71.0739 48.042 70.9076 48.4685C70.7413 48.8949 70.4237 49.8654 70.212 50.8652C69.9247 52.3356 66.8851 57.585 65.146 60.3347C64.5865 59.2613 64.1026 58.3202 63.9967 57.5703C63.8455 56.4381 63.664 55.747 63.8455 54.3942C64.027 53.0414 64.8436 51.1152 64.8284 50.9682C64.8133 50.8211 64.647 50.13 62.9835 50.1153C61.3201 50.1006 59.8834 50.4241 59.7171 50.8505C59.5507 51.2769 59.3693 52.2768 59.0215 53.2473C58.6737 54.2178 54.636 62.9814 53.5774 65.2458C53.033 66.4075 52.5642 67.3338 52.2315 67.9661C52.2315 67.9661 52.2164 68.0102 52.1711 68.0837C51.8837 68.6278 51.7174 68.9219 51.7174 68.9219C51.7174 68.9219 51.7174 68.9219 51.7174 68.9366C51.4906 69.3336 51.2486 69.7012 51.1276 69.7012C51.0369 69.7012 50.8705 68.6425 51.1579 67.2015C51.7628 64.1577 53.1994 59.423 53.1843 59.2613C53.1843 59.173 53.4565 58.3496 52.2467 57.9232C51.0671 57.4968 50.6437 58.2026 50.5379 58.2026C50.432 58.2026 50.3564 58.4525 50.3564 58.4525C50.3564 58.4525 51.672 53.1297 47.8461 53.1297C45.4568 53.1297 42.1601 55.6735 40.5269 57.9673C39.4986 58.5114 37.3058 59.673 34.9619 60.9228C34.0697 61.4081 33.1472 61.8933 32.2852 62.3491C32.2247 62.2903 32.1642 62.2168 32.1038 62.158C27.4763 57.3497 18.9171 53.9531 19.28 47.498C19.4161 45.1453 20.2479 38.9696 35.718 31.4705C48.451 25.3683 58.5829 27.0593 60.3371 30.8088C62.8474 36.1611 54.9082 46.1011 41.7518 47.5421C36.7312 48.0862 34.0999 46.204 33.4345 45.4982C32.7389 44.763 32.633 44.7189 32.376 44.866C31.9525 45.0865 32.2247 45.7482 32.376 46.1305C32.7691 47.1304 34.3872 48.8949 37.1244 49.7624C39.5439 50.527 45.4265 50.9535 52.5491 48.2773C60.5186 45.2777 66.749 36.9405 64.9192 29.956C63.0894 22.8686 50.9915 20.5307 39.5439 24.4861C32.7389 26.8387 25.3592 30.5442 20.0513 35.3671C13.7453 41.1017 12.7472 46.0864 13.1555 48.1744C14.6224 55.5852 25.1324 60.4082 29.3364 63.9813C29.1247 64.0989 28.9281 64.2018 28.7617 64.2901C26.6597 65.3046 18.6449 69.3777 16.6488 73.686C14.3804 78.5677 17.0117 82.0673 18.7508 82.5378C24.1494 83.9935 29.6993 81.3762 32.6784 77.0532C35.6575 72.7302 35.2946 67.1132 33.9184 64.54C33.9033 64.5106 33.8882 64.4812 33.8579 64.4518C34.4023 64.143 34.9619 63.8195 35.5063 63.5107C36.58 62.8932 37.6385 62.3197 38.5459 61.8492C38.0317 63.2167 37.6536 64.8488 37.4722 67.2015C37.2453 69.9658 38.4098 73.5536 39.9371 74.9652C40.6176 75.5828 41.4191 75.5975 41.9333 75.5975C43.7177 75.5975 44.5192 74.1565 45.4114 72.4508C46.5002 70.3629 47.4831 67.9367 47.4831 67.9367C47.4831 67.9367 46.2582 74.4947 49.5851 74.4947C50.7949 74.4947 52.0198 72.9655 52.5642 72.1862C52.5642 72.2009 52.5642 72.2009 52.5642 72.2009C52.5642 72.2009 52.5945 72.1568 52.655 72.0538C52.776 71.8627 52.8516 71.745 52.8516 71.745C52.8516 71.745 52.8516 71.7303 52.8516 71.7156C53.3355 70.8922 54.4243 69.0248 56.0424 65.9222C58.1293 61.9227 60.1405 56.9233 60.1405 56.9233C60.1405 56.9233 60.322 58.1438 60.942 60.1729C61.3049 61.364 62.0611 62.6726 62.6659 63.9372C62.182 64.5988 61.8796 64.9665 61.8796 64.9665C61.8796 64.9665 61.8796 64.9665 61.8947 64.9812C61.5015 65.4811 61.0781 66.0251 60.6093 66.5545C58.961 68.466 56.9951 70.6569 56.7229 71.2892C56.4053 72.0391 56.4809 72.5832 57.0858 73.0243C57.5244 73.3478 58.3107 73.3919 59.1122 73.3478C60.5942 73.2449 61.6376 72.892 62.1518 72.6714C62.9533 72.392 63.8908 71.9656 64.7679 71.3333C66.386 70.1717 67.369 68.5101 67.2782 66.3192C67.2329 65.1135 66.8246 63.9078 66.3255 62.7755C66.4768 62.5697 66.6129 62.3638 66.7641 62.158C69.3198 58.5261 71.3008 54.5413 71.3008 54.5413C71.3008 54.5413 71.4822 55.7617 72.1023 57.7909C72.4047 58.8201 73.0247 59.9377 73.5691 61.0258C71.1647 62.9226 69.6827 65.1282 69.1534 66.5692C68.2007 69.2453 68.9417 70.4511 70.3481 70.7305C70.9832 70.8628 71.8906 70.5687 72.5559 70.2893C73.4028 70.0247 74.4009 69.5688 75.3536 68.8924C76.9716 67.7308 78.5292 66.1134 78.4385 63.9225C78.3931 62.9226 78.1209 61.9374 77.7429 60.9816C79.7844 60.1582 82.4157 59.7024 85.7728 60.0847C92.9711 60.9081 94.3926 65.2752 94.1204 67.1132C93.8482 68.9513 92.3359 69.9511 91.8369 70.2599C91.3378 70.5687 91.1715 70.6716 91.2169 70.8922C91.2774 71.2157 91.5193 71.201 91.9427 71.1422C92.5325 71.0392 95.7233 69.6571 95.8594 66.2751C96.0863 61.9521 91.852 57.2321 84.3665 57.2762ZM28.8373 75.4799C26.448 78.009 23.1211 78.9647 21.6845 78.156C20.142 77.2885 20.7469 73.5536 23.6806 70.8775C25.4651 69.2453 27.7637 67.7308 29.291 66.8045C29.6388 66.5986 30.153 66.3045 30.773 65.9369C30.8789 65.8781 30.9393 65.8487 30.9393 65.8487C31.0603 65.7752 31.1813 65.7017 31.3023 65.6281C32.376 69.4512 31.3476 72.8184 28.8373 75.4799ZM46.228 63.9813C45.3963 65.9516 43.6572 70.9951 42.5986 70.7158C41.6913 70.4805 41.1318 66.6574 42.4172 62.8785C43.0674 60.9816 44.4436 58.7172 45.245 57.835C46.5456 56.4234 47.9822 55.9528 48.33 56.5263C48.7685 57.2762 46.7422 62.7461 46.228 63.9813ZM60.5791 70.6569C60.2313 70.8334 59.8986 70.951 59.7473 70.8628C59.6415 70.804 59.8986 70.5687 59.8986 70.5687C59.8986 70.5687 61.6981 68.6866 62.4089 67.8337C62.8172 67.3338 63.3011 66.7456 63.8152 66.084C63.8152 66.1428 63.8152 66.2163 63.8152 66.2751C63.8152 68.5248 61.5771 70.0394 60.5791 70.6569ZM71.6486 68.2014C71.3915 68.0249 71.4369 67.4367 72.2989 65.5987C72.6315 64.8782 73.4179 63.6725 74.7638 62.5109C74.915 62.9814 75.0209 63.4372 75.0057 63.8636C74.9906 66.7015 72.9037 67.7602 71.6486 68.2014Z" fill="#CD6799"/>
</g>
</g>
<defs>
<clipPath id="clip0_237_276">
<rect width="109" height="105" fill="white"/>
</clipPath>
<clipPath id="clip1_237_276">
<rect width="82.84" height="60.375" fill="white" transform="translate(13.08 22.575)"/>
</clipPath>
</defs>
</svg>
