<svg width="135" height="85" viewBox="0 0 135 85" fill="none" xmlns="http://www.w3.org/2000/svg">
<path d="M67.5 0C49.5 0 38.25 9.44444 33.75 28.3333C40.5 18.8889 48.375 15.3472 57.375 17.7083C62.51 19.0555 66.1803 22.9647 70.2428 27.2921C76.8607 34.3413 84.5202 42.5 101.25 42.5C119.25 42.5 130.5 33.0556 135 14.1667C128.25 23.6111 120.375 27.1528 111.375 24.7917C106.24 23.4445 102.57 19.5353 98.5072 15.2079C91.8893 8.15869 84.2298 0 67.5 0ZM33.75 42.5C15.75 42.5 4.5 51.9444 0 70.8333C6.75 61.3889 14.625 57.8472 23.625 60.2083C28.76 61.5555 32.4302 65.4647 36.4927 69.7921C43.1107 76.8413 50.7702 85 67.5 85C85.5 85 96.75 75.5555 101.25 56.6667C94.5 66.1111 86.625 69.6528 77.625 67.2917C72.49 65.9445 68.8197 62.0353 64.7572 57.7079C58.1393 50.6587 50.4798 42.5 33.75 42.5Z" fill="url(#paint0_linear_239_21)"/>
<defs>
<linearGradient id="paint0_linear_239_21" x1="-3.75" y1="27.2" x2="115.581" y2="92.7656" gradientUnits="userSpaceOnUse">
<stop stop-color="#2298BD"/>
<stop offset="1" stop-color="#0ED7B5"/>
</linearGradient>
</defs>
</svg>
