<svg width="120" height="122" viewBox="0 0 120 122" fill="none" xmlns="http://www.w3.org/2000/svg">
<ellipse cx="60" cy="61" rx="52.5" ry="53.375" fill="#028CB0"/>
<path d="M24.2077 61C24.2077 75.42 32.4577 87.84 44.3885 93.7435L27.3173 46.1928C25.2674 50.8511 24.2078 55.8968 24.2077 61ZM60 97.3889C64.1567 97.3889 68.1548 96.6469 71.899 95.3242L71.6452 94.8403L60.6346 64.1937L49.9096 95.9049C53.0827 96.8727 56.4779 97.3889 60 97.3889ZM64.9183 43.9347L77.8644 83.0656L81.45 70.936C82.9731 65.9035 84.1471 62.2904 84.1471 59.1612C84.1471 54.6449 82.5606 51.5479 81.2279 49.1607C79.3875 46.1283 77.7058 43.5798 77.7058 40.6119C77.7058 37.2569 80.1808 34.16 83.7346 34.16H84.1788C77.5837 28.0046 68.9528 24.596 60 24.6112C54.0721 24.61 48.2369 26.1071 43.0193 28.9677C37.8018 31.8283 33.3655 35.9628 30.1096 40.999L32.3942 41.0636C36.1385 41.0636 41.9135 40.5797 41.9135 40.5797C43.8808 40.4829 44.1029 43.354 42.1673 43.5798C42.1673 43.5798 40.2317 43.8379 38.0423 43.9347L51.1154 83.3559L58.9529 59.4838L53.3683 43.9347C52.1174 43.8645 50.8687 43.7569 49.624 43.6121C47.6885 43.483 47.9106 40.4829 49.8462 40.5797C49.8462 40.5797 55.7481 41.0636 59.2702 41.0636C63.0144 41.0636 68.7894 40.5797 68.7894 40.5797C70.725 40.4829 70.9788 43.354 69.0433 43.5798C69.0433 43.5798 67.1077 43.8056 64.9183 43.9347ZM77.9913 92.4531C83.406 89.2523 87.8997 84.6629 91.0234 79.1434C94.1471 73.624 95.7915 67.3679 95.7923 61C95.7923 54.6771 94.2058 48.7413 91.4135 43.5475C91.9805 49.2616 91.1296 55.0291 88.9385 60.3225L77.9913 92.4531ZM60 102.938C49.0598 102.937 38.5677 98.5191 30.8318 90.6543C23.096 82.7895 18.75 72.1225 18.75 61C18.75 49.8775 23.096 39.2105 30.8318 31.3457C38.5677 23.4809 49.0598 19.0625 60 19.0625C70.9402 19.0625 81.4323 23.4809 89.1682 31.3457C96.904 39.2105 101.25 49.8775 101.25 61C101.25 72.1225 96.904 82.7895 89.1682 90.6543C81.4323 98.5191 70.9402 102.938 60 102.938Z" fill="white"/>
</svg>
